<?xml version="1.0" standalone="no"?>
<!DOCTYPE svg PUBLIC "-//W3C//DTD SVG 20010904//EN"
 "http://www.w3.org/TR/2001/REC-SVG-20010904/DTD/svg10.dtd">
<svg version="1.0" xmlns="http://www.w3.org/2000/svg"
 width="720.000000pt" height="720.000000pt" viewBox="0 0 720.000000 720.000000"
 preserveAspectRatio="xMidYMid meet">
<metadata>
Created by potrace 1.14, written by Peter Selinger 2001-2017
</metadata>
<g transform="translate(0.000000,720.000000) scale(0.100000,-0.100000)"
fill="#000000" stroke="none">
<path d="M2479 7176 c-189 -34 -359 -102 -519 -209 -102 -68 -273 -242 -344
-349 -45 -68 -63 -88 -81 -88 -46 0 -213 -49 -287 -84 -290 -137 -499 -390
-579 -699 -27 -103 -36 -294 -20 -408 49 -335 284 -656 581 -790 l50 -23 0
-1871 0 -1872 -85 -5 c-146 -10 -269 -85 -333 -206 -105 -197 -25 -439 178
-536 l65 -31 1890 0 1890 0 57 27 c80 37 152 107 191 187 30 61 32 72 32 171
0 92 -3 112 -26 160 -40 84 -99 144 -183 185 -61 31 -85 37 -164 42 l-92 6 0
173 0 174 133 0 c303 0 550 55 791 176 139 70 219 122 332 216 300 250 509
606 580 993 29 152 26 481 -5 625 -114 535 -452 966 -936 1196 -233 111 -489
164 -792 164 l-103 0 0 130 0 130 49 63 c171 218 244 507 196 778 -36 210
-124 380 -274 530 -122 122 -263 206 -428 255 -70 21 -117 27 -226 31 l-138 6
-26 51 c-177 352 -504 604 -898 692 -96 22 -377 27 -476 10z m2601 -3381 c296
-62 558 -262 693 -530 247 -489 53 -1089 -433 -1339 -162 -84 -308 -116 -521
-116 l-119 0 0 998 c0 549 3 1002 8 1007 11 12 289 -2 372 -20z"/>
</g>
</svg>
